<svg width="17" height="16" viewBox="0 0 17 16" fill="none" xmlns="http://www.w3.org/2000/svg">
<g id="Component 1">
<path id="Vector" d="M6.08191 3.7369C6.00719 3.81147 5.94791 3.90005 5.90746 3.99756C5.86701 4.09506 5.84619 4.19959 5.84619 4.30516C5.84619 4.41072 5.86701 4.51525 5.90746 4.61276C5.94791 4.71027 6.00719 4.79884 6.08191 4.87341L9.20932 8.00082L6.08191 11.1282C6.00729 11.2029 5.94809 11.2915 5.90771 11.389C5.86732 11.4865 5.84653 11.591 5.84653 11.6965C5.84653 11.802 5.86732 11.9065 5.90771 12.004C5.94809 12.1015 6.00729 12.1901 6.08191 12.2647C6.15654 12.3394 6.24513 12.3986 6.34263 12.4389C6.44013 12.4793 6.54463 12.5001 6.65017 12.5001C6.7557 12.5001 6.8602 12.4793 6.9577 12.4389C7.0552 12.3986 7.1438 12.3394 7.21842 12.2647L10.9181 8.56505C10.9928 8.49048 11.0521 8.40191 11.0926 8.3044C11.133 8.20689 11.1538 8.10236 11.1538 7.99679C11.1538 7.89123 11.133 7.7867 11.0926 7.68919C11.0521 7.59168 10.9928 7.50311 10.9181 7.42854L7.21842 3.72884C6.91213 3.42255 6.39626 3.42255 6.08191 3.7369Z" fill="#CDCDCD"/>
</g>
</svg>
