<svg width="25" height="24" viewBox="0 0 25 24" fill="none" xmlns="http://www.w3.org/2000/svg">
<g id="grommet-icons:technology">
<path id="Vector" d="M10.667 5L12.667 3M8.66699 16L16.667 8M12.667 21L14.667 19M17.167 19C17.83 19 18.4659 18.7366 18.9348 18.2678C19.4036 17.7989 19.667 17.163 19.667 16.5C19.667 15.837 19.4036 15.2011 18.9348 14.7322C18.4659 14.2634 17.83 14 17.167 14C16.504 14 15.8681 14.2634 15.3992 14.7322C14.9304 15.2011 14.667 15.837 14.667 16.5C14.667 17.163 14.9304 17.7989 15.3992 18.2678C15.8681 18.7366 16.504 19 17.167 19ZM8.16699 10C8.83003 10 9.46592 9.73661 9.93476 9.26777C10.4036 8.79893 10.667 8.16304 10.667 7.5C10.667 6.83696 10.4036 6.20107 9.93476 5.73223C9.46592 5.26339 8.83003 5 8.16699 5C7.50395 5 6.86807 5.26339 6.39923 5.73223C5.93038 6.20107 5.66699 6.83696 5.66699 7.5C5.66699 8.16304 5.93038 8.79893 6.39923 9.26777C6.86807 9.73661 7.50395 10 8.16699 10ZM6.16699 21C6.83003 21 7.46592 20.7366 7.93476 20.2678C8.4036 19.7989 8.66699 19.163 8.66699 18.5C8.66699 17.837 8.4036 17.2011 7.93476 16.7322C7.46592 16.2634 6.83003 16 6.16699 16C5.50395 16 4.86807 16.2634 4.39923 16.7322C3.93038 17.2011 3.66699 17.837 3.66699 18.5C3.66699 19.163 3.93038 19.7989 4.39923 20.2678C4.86807 20.7366 5.50395 21 6.16699 21ZM19.167 8C19.83 8 20.4659 7.73661 20.9348 7.26777C21.4036 6.79893 21.667 6.16304 21.667 5.5C21.667 4.83696 21.4036 4.20107 20.9348 3.73223C20.4659 3.26339 19.83 3 19.167 3C18.504 3 17.8681 3.26339 17.3992 3.73223C16.9304 4.20107 16.667 4.83696 16.667 5.5C16.667 6.16304 16.9304 6.79893 17.3992 7.26777C17.8681 7.73661 18.504 8 19.167 8Z" stroke="#3E3E3E" stroke-width="2" stroke-linecap="round" stroke-linejoin="round"/>
</g>
</svg>
